<svg width="50" height="50" viewBox="0 0 50 50" fill="none" xmlns="http://www.w3.org/2000/svg">
<path d="M31.1771 33.7167C30.7997 33.8807 30.3927 33.9653 29.9812 33.9653C29.5698 33.9653 29.1628 33.8807 28.7854 33.7167L14.6396 27.5292C14.4615 27.4515 14.31 27.3236 14.2035 27.1612C14.0969 26.9988 14.04 26.8088 14.0396 26.6146V7.66667C14.0404 7.45454 14.1087 7.24818 14.2345 7.07741C14.3604 6.90664 14.5372 6.7803 14.7396 6.71667L29.0875 2.23125C29.6708 2.04792 30.2958 2.04792 30.8792 2.23125L45.2271 6.72083C45.428 6.78498 45.6035 6.91099 45.7284 7.08087C45.8534 7.25074 45.9215 7.45578 45.9229 7.66667V26.6167C45.9223 26.8103 45.8655 26.9996 45.7593 27.1616C45.6532 27.3236 45.5023 27.4513 45.325 27.5292L31.1771 33.7167Z" fill="#FBFBFF"/>
<path d="M29.9813 13.0458V33.9687C30.3965 33.9687 30.7952 33.8854 31.1771 33.7187L45.325 27.5271C45.5023 27.4492 45.6532 27.3215 45.7594 27.1595C45.8655 26.9975 45.9223 26.8082 45.9229 26.6146V7.66664C45.9205 7.47728 45.8665 7.29218 45.7667 7.13123L29.9813 13.0458Z" fill="#FBFBFF"/>
<path d="M29.9813 14.8312V13.0458M45.7708 7.125L29.9833 13.0458L14.1938 7.125" stroke="#191919" stroke-width="2.08333" stroke-linecap="round" stroke-linejoin="round"/>
<path d="M39.9458 29.8833L45.325 27.5292C45.5026 27.4511 45.6537 27.3231 45.7599 27.1607C45.8661 26.9984 45.9227 26.8086 45.9229 26.6146V7.66665C45.9221 7.45453 45.8538 7.24817 45.728 7.0774C45.6021 6.90662 45.4253 6.78029 45.2229 6.71665L30.875 2.22082C30.2911 2.03788 29.6652 2.03788 29.0812 2.22082L14.7333 6.70832C14.5308 6.77348 14.3543 6.90154 14.2295 7.07389C14.1048 7.24624 14.0382 7.45389 14.0396 7.66665V13.5833" stroke="#191919" stroke-width="2.08333" stroke-linecap="round" stroke-linejoin="round"/>
<path d="M21.2146 47.6666C20.8372 47.8306 20.4302 47.9153 20.0188 47.9153C19.6073 47.9153 19.2003 47.8306 18.8229 47.6666L4.675 41.4771C4.49769 41.3992 4.34679 41.2715 4.24065 41.1095C4.13451 40.9475 4.07769 40.7582 4.07709 40.5646V21.6125C4.07792 21.4003 4.14619 21.194 4.27202 21.0232C4.39786 20.8524 4.57473 20.7261 4.77709 20.6625L19.1229 16.1771C19.7063 15.9937 20.3333 15.9937 20.9167 16.1771L35.2646 20.6666C35.4669 20.7303 35.6438 20.8566 35.7696 21.0274C35.8955 21.1981 35.9638 21.4045 35.9646 21.6166V40.5646C35.964 40.7582 35.9072 40.9475 35.801 41.1095C35.6949 41.2715 35.544 41.3992 35.3667 41.4771L21.2146 47.6666Z" fill="#06D6A0" stroke="#191919" stroke-width="2.08333" stroke-linecap="round" stroke-linejoin="round"/>
<path d="M20.0188 47.9166V26.9937M20.0188 26.9937L35.8083 21.0729M20.0188 26.9937L4.23126 21.0729" stroke="#191919" stroke-width="2.08333" stroke-linecap="round" stroke-linejoin="round"/>
<path d="M20.0188 26.9938V47.9167C20.4313 47.9167 20.8354 47.8313 21.2146 47.6667L35.3604 41.4771C35.5381 41.3995 35.6895 41.272 35.796 41.11C35.9025 40.948 35.9597 40.7585 35.9604 40.5646V21.6125C35.958 21.4231 35.904 21.238 35.8042 21.0771L20.0188 26.9938Z" fill="#06D6A0" stroke="#191919" stroke-width="2.08333" stroke-linecap="round" stroke-linejoin="round"/>
<path d="M29.9813 6.56873C30.1139 6.56873 30.241 6.6214 30.3348 6.71517C30.4286 6.80894 30.4813 6.93612 30.4813 7.06873" stroke="#191919" stroke-width="2.08333" stroke-linecap="round" stroke-linejoin="round"/>
<path d="M29.9833 6.56873C29.8511 6.56872 29.7242 6.62112 29.6305 6.71443C29.5368 6.80775 29.4839 6.93439 29.4833 7.06664C29.4839 7.19889 29.5368 7.32553 29.6305 7.41885C29.7242 7.51217 29.8511 7.56456 29.9833 7.56456" stroke="#191919" stroke-width="2.08333" stroke-linecap="round" stroke-linejoin="round"/>
<path d="M30.4792 7.06665C30.4792 7.1989 30.4268 7.32576 30.3335 7.41947C30.2402 7.51318 30.1135 7.5661 29.9813 7.56665M41.4396 14.0416C41.4396 13.9094 41.3872 13.7825 41.2939 13.6888C41.2006 13.5951 41.0739 13.5422 40.9417 13.5417C40.8094 13.5422 40.6828 13.5951 40.5895 13.6888C40.4962 13.7825 40.4438 13.9094 40.4438 14.0416" stroke="#191919" stroke-width="2.08333" stroke-linecap="round" stroke-linejoin="round"/>
<path d="M40.9417 14.5396C40.8091 14.5396 40.6819 14.4869 40.5881 14.3931C40.4944 14.2993 40.4417 14.1722 40.4417 14.0396" stroke="#191919" stroke-width="2.08333" stroke-linecap="round" stroke-linejoin="round"/>
<path d="M41.4396 14.0416C41.439 14.1739 41.3861 14.3005 41.2924 14.3938C41.1987 14.4872 41.0718 14.5395 40.9396 14.5395M41.4396 24.0062C41.4396 23.874 41.3872 23.7471 41.2939 23.6534C41.2006 23.5597 41.0739 23.5068 40.9417 23.5062C40.8098 23.5068 40.6835 23.5594 40.5902 23.6527C40.4969 23.7459 40.4443 23.8722 40.4438 24.0041C40.4443 24.1364 40.4952 24.263 40.5889 24.3563C40.6826 24.4497 40.8094 24.502 40.9417 24.502" stroke="#191919" stroke-width="2.08333" stroke-linecap="round" stroke-linejoin="round"/>
<path d="M41.4396 24.0042C41.4396 24.1368 41.3869 24.2639 41.2931 24.3577C41.1994 24.4515 41.0722 24.5041 40.9396 24.5041M31.4771 29.9833C31.4765 29.8514 31.4239 29.7251 31.3306 29.6318C31.2374 29.5386 31.111 29.4859 30.9792 29.4854C30.8465 29.4854 30.7194 29.536 30.6256 29.6298C30.5318 29.7235 30.4792 29.8507 30.4792 29.9833C30.4803 30.1152 30.5334 30.2413 30.6271 30.3342C30.7207 30.427 30.8473 30.4792 30.9792 30.4791" stroke="#191919" stroke-width="2.08333" stroke-linecap="round" stroke-linejoin="round"/>
<path d="M31.4771 29.9833C31.4765 30.1156 31.4236 30.2422 31.3299 30.3355C31.2362 30.4289 31.1093 30.4813 30.9771 30.4813M27.9896 34.4667C28.1215 34.4672 28.2478 34.5199 28.3411 34.6131C28.4343 34.7064 28.487 34.8327 28.4875 34.9646M27.4917 34.9646C27.4917 34.8323 27.5441 34.7055 27.6374 34.6118C27.7307 34.5181 27.8573 34.4651 27.9896 34.4646" stroke="#191919" stroke-width="2.08333" stroke-linecap="round" stroke-linejoin="round"/>
<path d="M27.9896 35.4625C27.857 35.4625 27.7298 35.4098 27.636 35.316C27.5423 35.2223 27.4896 35.0951 27.4896 34.9625" stroke="#191919" stroke-width="2.08333" stroke-linecap="round" stroke-linejoin="round"/>
<path d="M28.4875 34.9646C28.4869 35.0968 28.434 35.2235 28.3403 35.3168C28.2466 35.4101 28.1197 35.4625 27.9875 35.4625M25.5 39.9479C25.5 39.8153 25.4473 39.6881 25.3536 39.5944C25.2598 39.5006 25.1326 39.4479 25 39.4479C24.8678 39.4479 24.7409 39.5003 24.6472 39.5936C24.5535 39.687 24.5006 39.8136 24.5 39.9458C24.5006 40.0781 24.5535 40.2047 24.6472 40.2981C24.7409 40.3914 24.8678 40.4438 25 40.4438" stroke="#191919" stroke-width="2.08333" stroke-linecap="round" stroke-linejoin="round"/>
<path d="M25.5 39.9458C25.5 40.0784 25.4473 40.2056 25.3536 40.2993C25.2598 40.3931 25.1326 40.4458 25 40.4458M15.5354 39.9479C15.5354 39.8156 15.483 39.6888 15.3897 39.5951C15.2964 39.5014 15.1698 39.4484 15.0375 39.4479C14.9056 39.4484 14.7793 39.5011 14.686 39.5943C14.5928 39.6876 14.5401 39.8139 14.5396 39.9458C14.5401 40.078 14.591 40.2047 14.6847 40.298C14.7784 40.3913 14.9053 40.4437 15.0375 40.4437" stroke="#191919" stroke-width="2.08333" stroke-linecap="round" stroke-linejoin="round"/>
<path d="M15.5354 39.9458C15.5354 40.0784 15.4828 40.2056 15.389 40.2994C15.2952 40.3932 15.168 40.4458 15.0354 40.4458M8.56043 29.9833C8.56043 29.8511 8.61282 29.7242 8.70614 29.6305C8.79946 29.5368 8.9261 29.486 9.05835 29.4854C9.1906 29.4854 9.31746 29.5378 9.41117 29.6311C9.50488 29.7244 9.5578 29.8511 9.55835 29.9833C9.5578 30.1152 9.50308 30.2415 9.40982 30.3348C9.31657 30.4281 9.19024 30.4786 9.05835 30.4792C8.92646 30.4792 8.79991 30.4271 8.70626 30.3342C8.61261 30.2413 8.55945 30.1152 8.55835 29.9833M20.5167 21.0167C20.5167 20.8844 20.4643 20.7576 20.371 20.6638C20.2777 20.5701 20.151 20.5172 20.0188 20.5167C19.8865 20.5172 19.7599 20.5701 19.6666 20.6638C19.5732 20.7576 19.5208 20.8844 19.5208 21.0167" stroke="#191919" stroke-width="2.08333" stroke-linecap="round" stroke-linejoin="round"/>
<path d="M20.0188 21.5146C19.8862 21.5146 19.759 21.4619 19.6652 21.3681C19.5714 21.2744 19.5188 21.1472 19.5188 21.0146" stroke="#191919" stroke-width="2.08333" stroke-linecap="round" stroke-linejoin="round"/>
<path d="M20.5167 21.0167C20.5161 21.1489 20.4632 21.2756 20.3695 21.3689C20.2758 21.4622 20.1489 21.5146 20.0167 21.5146" stroke="#191919" stroke-width="2.08333" stroke-linecap="round" stroke-linejoin="round"/>
</svg>
