<svg width="60" height="45" viewBox="0 0 60 45" fill="none" xmlns="http://www.w3.org/2000/svg">
<path d="M29.625 1.5V42.75M1.5 1.5H57.75V42.75H1.5V1.5Z" stroke="white" stroke-width="3" stroke-linecap="round" stroke-linejoin="round"/>
<path d="M1.5 12.75H9C9.99456 12.75 10.9484 13.1451 11.6517 13.8483C12.3549 14.5516 12.75 15.5054 12.75 16.5V27.75C12.75 28.7446 12.3549 29.6984 11.6517 30.4017C10.9484 31.1049 9.99456 31.5 9 31.5H1.5M57.75 12.75H50.25C49.2554 12.75 48.3016 13.1451 47.5984 13.8483C46.8951 14.5516 46.5 15.5054 46.5 16.5V27.75C46.5 28.7446 46.8951 29.6984 47.5984 30.4017C48.3016 31.1049 49.2554 31.5 50.25 31.5H57.75M22.125 22.125C22.125 24.1141 22.9152 26.0218 24.3217 27.4283C25.7282 28.8348 27.6359 29.625 29.625 29.625C31.6141 29.625 33.5218 28.8348 34.9283 27.4283C36.3348 26.0218 37.125 24.1141 37.125 22.125C37.125 20.1359 36.3348 18.2282 34.9283 16.8217C33.5218 15.4152 31.6141 14.625 29.625 14.625C27.6359 14.625 25.7282 15.4152 24.3217 16.8217C22.9152 18.2282 22.125 20.1359 22.125 22.125Z" stroke="white" stroke-width="3" stroke-linecap="round" stroke-linejoin="round"/>
</svg>
