<svg width="50" height="50" viewBox="0 0 50 50" fill="none" xmlns="http://www.w3.org/2000/svg">
<path d="M9.15529 7.95343C8.6299 7.95343 7.94748 8.19659 6.97189 8.82911C7.35919 9.28634 7.76945 9.77511 8.58029 10.7096C9.14494 11.3603 9.71486 12.0074 10.1453 12.476C10.149 12.4801 10.1507 12.4814 10.1543 12.4854L13.1713 10.7342L11.7404 9.35255C10.6377 8.43419 9.91974 7.99845 9.25822 7.95675C9.22392 7.95458 9.18966 7.95347 9.15529 7.95343ZM20.8819 9.42628C20.7958 9.42534 20.7098 9.42567 20.6237 9.42726C19.6023 9.44611 18.6511 9.64503 18.0122 9.95695L11.4437 13.7692C11.6829 13.8224 11.9207 13.886 12.1553 13.9665C13.8423 14.5449 15.387 15.7461 16.9959 17.3552L38.1326 38.2048L46.0406 33.8656L25.2481 10.877C24.4028 10.1113 23.0518 9.61642 21.6648 9.4713C21.4046 9.44428 21.1433 9.42929 20.8818 9.42638L20.8819 9.42628ZM5.68283 10.0332C3.96964 12.0569 3.67404 13.6647 4.18615 15.6C4.25373 15.8557 4.48468 16.2208 4.80851 16.6225C5.02914 16.3066 5.25992 15.9979 5.5005 15.6969C5.89015 15.2091 6.31935 14.8001 6.77834 14.4705L6.76798 14.451L7.0383 14.2938C7.16935 14.2102 7.30392 14.1322 7.44162 14.0601L8.6006 13.3872C8.14624 12.8832 7.6969 12.3746 7.25265 11.8616C6.72653 11.2546 6.20318 10.6452 5.68283 10.0332ZM23.6607 11.3455L29.3652 17.368C24.8647 16.8761 23.8194 18.657 22.6243 20.7078L17.0253 14.9164L23.6607 11.3455ZM10.1272 15.3545C10.0572 15.3529 9.98718 15.353 9.9172 15.3547C9.23595 15.3723 8.5298 15.5557 7.74416 15.9294C7.44777 16.153 7.15919 16.4368 6.87404 16.7939C4.35744 19.9446 3.90041 22.5688 4.38537 24.9459C4.87033 27.3231 6.39084 29.5022 8.0881 31.4357C9.3883 32.9169 10.9065 33.7786 12.8217 34.1632C14.7371 34.548 17.0637 34.4276 19.851 33.8238C23.0977 33.1207 26.2973 34.6461 29.2074 36.5255C31.758 38.1728 34.1563 40.1476 36.1391 41.4034L36.9975 39.5543L15.7553 18.6002L15.7531 18.5981C14.2371 17.082 12.8659 16.0683 11.585 15.6291C11.0947 15.461 10.6157 15.366 10.1272 15.3545ZM45.9748 35.9068L38.802 39.8428L37.7785 42.0466L44.6958 38.2956L45.9747 35.9069L45.9748 35.9068Z" fill="#06D6A0"/>
</svg>
