<svg width="30" height="30" viewBox="0 0 30 30" fill="none" xmlns="http://www.w3.org/2000/svg">
<path fill-rule="evenodd" clip-rule="evenodd" d="M13.725 0.0543326C16.3138 -0.16661 18.9157 0.288734 21.2756 1.37576C23.6356 2.46279 25.6727 4.14422 27.1875 6.25534V3.28141C27.1875 2.90842 27.3357 2.55072 27.5994 2.28698C27.8631 2.02324 28.2208 1.87507 28.5938 1.87507C28.9667 1.87507 29.3244 2.02324 29.5881 2.28698C29.8518 2.55072 30 2.90842 30 3.28141V11.2507H22.0312C21.6583 11.2507 21.3006 11.1025 21.0369 10.8387C20.7732 10.575 20.625 10.2173 20.625 9.84432C20.625 9.47133 20.7732 9.11362 21.0369 8.84988C21.3006 8.58615 21.6583 8.43798 22.0312 8.43798H25.2694C23.9871 6.43143 22.1451 4.84448 19.971 3.87317C17.7969 2.90187 15.386 2.58875 13.0359 2.97251C10.6859 3.35626 8.49968 4.42008 6.74746 6.03254C4.99523 7.645 3.75371 9.73546 3.17625 12.0457C3.13366 12.2272 3.05541 12.3984 2.94606 12.5493C2.83672 12.7003 2.69845 12.828 2.5393 12.9251C2.38015 13.0221 2.2033 13.0865 2.01903 13.1146C1.83476 13.1427 1.64675 13.1339 1.46592 13.0886C1.2851 13.0434 1.11507 12.9626 0.965725 12.8511C0.816382 12.7396 0.690703 12.5994 0.595997 12.4389C0.50129 12.2783 0.439446 12.1005 0.41406 11.9159C0.388675 11.7312 0.400254 11.5433 0.448125 11.3632C1.20664 8.33002 2.89388 5.6097 5.27399 3.58245C7.65409 1.5552 10.6081 0.322344 13.7231 0.0562077L13.725 0.0543326ZM7.35 27.9036C9.35997 29.095 11.6205 29.8003 13.9513 29.9634C16.2821 30.1265 18.6188 29.7428 20.7751 28.8429C22.9313 27.943 24.8476 26.5518 26.3711 24.7801C27.8945 23.0085 28.9831 20.9054 29.55 18.6386C29.6344 18.279 29.5739 17.9005 29.3816 17.5851C29.1893 17.2697 28.8806 17.0426 28.5222 16.953C28.1639 16.8633 27.7846 16.9183 27.4665 17.106C27.1483 17.2937 26.9167 17.599 26.8219 17.9561C26.2441 20.2658 25.0025 22.3558 23.2505 23.9678C21.4984 25.5799 19.3126 26.6434 16.9629 27.0271C14.6133 27.4108 12.2027 27.0979 10.0288 26.127C7.85499 25.1561 6.01311 23.5697 4.73063 21.5638H7.96875C8.34171 21.5638 8.6994 21.4156 8.96312 21.1519C9.22684 20.8881 9.375 20.5304 9.375 20.1575C9.375 19.7845 9.22684 19.4268 8.96312 19.163C8.6994 18.8993 8.34171 18.7511 7.96875 18.7511H0V26.7204C0 27.0933 0.148158 27.4511 0.411881 27.7148C0.675604 27.9785 1.03329 28.1267 1.40625 28.1267C1.77921 28.1267 2.1369 27.9785 2.40062 27.7148C2.66434 27.4511 2.8125 27.0933 2.8125 26.7204V23.7464C4.02147 25.4309 5.56647 26.8463 7.35 27.9036Z" fill="#FBFBFF"/>
</svg>
