<svg width="50" height="45" viewBox="0 0 50 45" fill="none" xmlns="http://www.w3.org/2000/svg">
<path d="M33.75 32.5C33.0417 32.5 32.4483 32.26 31.97 31.78C31.4917 31.3 31.2517 30.7067 31.25 30V20C31.25 19.2917 31.49 18.6983 31.97 18.22C32.45 17.7417 33.0433 17.5017 33.75 17.5H40C40.7083 17.5 41.3025 17.74 41.7825 18.22C42.2625 18.7 42.5017 19.2933 42.5 20V30C42.5 30.7083 42.26 31.3025 41.78 31.7825C41.3 32.2625 40.7067 32.5017 40 32.5H33.75ZM35 28.75H38.75V21.25H35V28.75ZM7.5 32.5V26.25C7.5 25.5417 7.74 24.9483 8.22 24.47C8.7 23.9917 9.29333 23.7517 10 23.75H15V21.25H7.5V17.5H16.25C16.9583 17.5 17.5525 17.74 18.0325 18.22C18.5125 18.7 18.7517 19.2933 18.75 20V23.75C18.75 24.4583 18.51 25.0525 18.03 25.5325C17.55 26.0125 16.9567 26.2517 16.25 26.25H11.25V28.75H18.75V32.5H7.5ZM23.125 22.5V18.75H26.875V22.5H23.125ZM23.125 31.25V27.5H26.875V31.25H23.125ZM5 45C3.625 45 2.44833 44.5108 1.47 43.5325C0.491667 42.5542 0.00166667 41.3767 0 40V10C0 8.625 0.49 7.44833 1.47 6.47C2.45 5.49167 3.62667 5.00167 5 5H12.5V0H17.5V5H32.5V0H37.5V5H45C46.375 5 47.5525 5.49 48.5325 6.47C49.5125 7.45 50.0017 8.62667 50 10V40C50 41.375 49.5108 42.5525 48.5325 43.5325C47.5542 44.5125 46.3767 45.0017 45 45H5ZM5 40H23.125V36.25H26.875V40H45V10H26.875V13.75H23.125V10H5V40Z" fill="white"/>
</svg>
